<?xml version="1.0" encoding="UTF-8"?>
<svg xmlns="http://www.w3.org/2000/svg" xmlns:xlink="http://www.w3.org/1999/xlink" width="187pt" height="187pt" viewBox="0 0 187 187" version="1.1">
<g id="surface1">
<path style=" stroke:none;fill-rule:nonzero;fill:rgb(32.941176%,36.862745%,45.098039%);fill-opacity:1;" d="M 165.144531 26.714844 C 162.703125 11.8125 127.832031 0 85.152344 0 C 42.472656 0 7.601562 11.8125 5.160156 26.714844 L 5.007812 26.714844 L 5.007812 150.269531 L 5.160156 150.269531 C 7.601562 165.164062 42.476562 176.980469 85.152344 176.980469 C 127.828125 176.980469 162.703125 165.164062 165.144531 150.269531 L 165.292969 150.269531 L 165.292969 26.714844 Z M 165.144531 26.714844 "/>
<path style=" stroke:none;fill-rule:nonzero;fill:rgb(21.960784%,27.058824%,30.980392%);fill-opacity:1;" d="M 85.152344 136.910156 C 40.890625 136.910156 5.007812 124.203125 5.007812 108.527344 L 5.007812 150.269531 L 5.160156 150.269531 C 7.601562 165.164062 42.476562 176.980469 85.152344 176.980469 C 127.828125 176.980469 162.703125 165.164062 165.144531 150.269531 L 165.292969 150.269531 L 165.292969 108.527344 C 165.292969 124.203125 129.414062 136.910156 85.152344 136.910156 Z M 85.152344 136.910156 "/>
<path style=" stroke:none;fill-rule:nonzero;fill:rgb(21.960784%,27.058824%,30.980392%);fill-opacity:1;" d="M 5.007812 106.855469 L 5.007812 108.527344 C 5.007812 107.964844 5.070312 107.410156 5.160156 106.855469 Z M 5.007812 106.855469 "/>
<path style=" stroke:none;fill-rule:nonzero;fill:rgb(21.960784%,27.058824%,30.980392%);fill-opacity:1;" d="M 165.144531 106.855469 C 165.234375 107.410156 165.292969 107.964844 165.292969 108.527344 L 165.292969 106.855469 Z M 165.144531 106.855469 "/>
<path style=" stroke:none;fill-rule:nonzero;fill:rgb(33.333333%,37.647059%,50.196078%);fill-opacity:1;" d="M 85.152344 96.839844 C 40.890625 96.839844 5.007812 84.128906 5.007812 68.457031 L 5.007812 110.195312 L 5.160156 110.195312 C 7.601562 125.09375 42.476562 136.910156 85.152344 136.910156 C 127.828125 136.910156 162.703125 125.09375 165.144531 110.195312 L 165.292969 110.195312 L 165.292969 68.457031 C 165.292969 84.128906 129.414062 96.839844 85.152344 96.839844 Z M 85.152344 96.839844 "/>
<path style=" stroke:none;fill-rule:nonzero;fill:rgb(33.333333%,37.647059%,50.196078%);fill-opacity:1;" d="M 5.007812 66.785156 L 5.007812 68.457031 C 5.007812 67.894531 5.070312 67.339844 5.160156 66.785156 Z M 5.007812 66.785156 "/>
<path style=" stroke:none;fill-rule:nonzero;fill:rgb(33.333333%,37.647059%,50.196078%);fill-opacity:1;" d="M 165.144531 66.785156 C 165.234375 67.339844 165.292969 67.894531 165.292969 68.457031 L 165.292969 66.785156 Z M 165.144531 66.785156 "/>
<path style=" stroke:none;fill-rule:nonzero;fill:rgb(56.862745%,72.941176%,88.235294%);fill-opacity:1;" d="M 165.292969 28.382812 C 165.292969 12.707031 129.414062 0 85.152344 0 C 40.890625 0 5.007812 12.707031 5.007812 28.382812 C 5.007812 44.058594 40.890625 56.769531 85.152344 56.769531 C 129.414062 56.769531 165.292969 44.058594 165.292969 28.382812 Z M 165.292969 28.382812 "/>
<path style=" stroke:none;fill-rule:nonzero;fill:rgb(52.54902%,59.215686%,79.607843%);fill-opacity:1;" d="M 85.152344 56.769531 C 40.890625 56.769531 5.007812 44.058594 5.007812 28.382812 L 5.007812 70.125 L 5.160156 70.125 C 7.601562 85.023438 42.476562 96.839844 85.152344 96.839844 C 127.828125 96.839844 162.703125 85.023438 165.144531 70.125 L 165.292969 70.125 L 165.292969 28.382812 C 165.292969 44.058594 129.414062 56.769531 85.152344 56.769531 Z M 85.152344 56.769531 "/>
<path style=" stroke:none;fill-rule:nonzero;fill:rgb(52.54902%,59.215686%,79.607843%);fill-opacity:1;" d="M 5.007812 26.714844 L 5.007812 28.382812 C 5.007812 27.824219 5.070312 27.269531 5.160156 26.714844 Z M 5.007812 26.714844 "/>
<path style=" stroke:none;fill-rule:nonzero;fill:rgb(52.54902%,59.215686%,79.607843%);fill-opacity:1;" d="M 165.144531 26.714844 C 165.234375 27.269531 165.292969 27.824219 165.292969 28.382812 L 165.292969 26.714844 Z M 165.144531 26.714844 "/>
<path style=" stroke:none;fill-rule:nonzero;fill:rgb(92.941176%,44.313725%,38.039216%);fill-opacity:1;" d="M 181.992188 146.929688 C 181.992188 169.058594 164.050781 187 141.917969 187 C 119.789062 187 101.847656 169.058594 101.847656 146.929688 C 101.847656 124.796875 119.789062 106.855469 141.917969 106.855469 C 164.050781 106.855469 181.992188 124.796875 181.992188 146.929688 Z M 181.992188 146.929688 "/>
<path style=" stroke:none;fill-rule:nonzero;fill:rgb(100%,100%,100%);fill-opacity:1;" d="M 146.640625 146.929688 L 158.449219 135.121094 C 159.753906 133.816406 159.753906 131.703125 158.449219 130.398438 C 157.144531 129.09375 155.03125 129.09375 153.726562 130.398438 L 141.917969 142.207031 L 130.113281 130.398438 C 128.804688 129.09375 126.695312 129.09375 125.390625 130.398438 C 124.085938 131.703125 124.085938 133.816406 125.390625 135.121094 L 137.199219 146.929688 L 125.390625 158.734375 C 124.085938 160.042969 124.085938 162.152344 125.390625 163.457031 C 126.042969 164.109375 126.894531 164.4375 127.75 164.4375 C 128.605469 164.4375 129.460938 164.109375 130.113281 163.457031 L 141.917969 151.648438 L 153.726562 163.457031 C 154.378906 164.109375 155.234375 164.4375 156.089844 164.4375 C 156.941406 164.4375 157.796875 164.109375 158.449219 163.457031 C 159.753906 162.152344 159.753906 160.042969 158.449219 158.734375 Z M 146.640625 146.929688 "/>
</g>
</svg>
