<?xml version="1.0" encoding="UTF-8"?>
<svg xmlns="http://www.w3.org/2000/svg" xmlns:xlink="http://www.w3.org/1999/xlink" width="187pt" height="187pt" viewBox="0 0 187 187" version="1.1">
<g id="surface1">
<path style=" stroke:none;fill-rule:nonzero;fill:rgb(32.941176%,36.862745%,45.098039%);fill-opacity:1;" d="M 165.144531 26.714844 C 162.703125 11.8125 127.832031 0 85.152344 0 C 42.472656 0 7.601562 11.8125 5.160156 26.714844 L 5.007812 26.714844 L 5.007812 150.269531 L 5.160156 150.269531 C 7.601562 165.164062 42.476562 176.980469 85.152344 176.980469 C 127.828125 176.980469 162.703125 165.164062 165.144531 150.269531 L 165.292969 150.269531 L 165.292969 26.714844 Z M 165.144531 26.714844 "/>
<path style=" stroke:none;fill-rule:nonzero;fill:rgb(21.960784%,27.058824%,30.980392%);fill-opacity:1;" d="M 85.152344 136.910156 C 40.890625 136.910156 5.007812 124.203125 5.007812 108.527344 L 5.007812 150.269531 L 5.160156 150.269531 C 7.601562 165.164062 42.476562 176.980469 85.152344 176.980469 C 127.828125 176.980469 162.703125 165.164062 165.144531 150.269531 L 165.292969 150.269531 L 165.292969 108.527344 C 165.292969 124.203125 129.414062 136.910156 85.152344 136.910156 Z M 85.152344 136.910156 "/>
<path style=" stroke:none;fill-rule:nonzero;fill:rgb(21.960784%,27.058824%,30.980392%);fill-opacity:1;" d="M 5.007812 106.855469 L 5.007812 108.527344 C 5.007812 107.964844 5.070312 107.410156 5.160156 106.855469 Z M 5.007812 106.855469 "/>
<path style=" stroke:none;fill-rule:nonzero;fill:rgb(21.960784%,27.058824%,30.980392%);fill-opacity:1;" d="M 165.144531 106.855469 C 165.234375 107.410156 165.292969 107.964844 165.292969 108.527344 L 165.292969 106.855469 Z M 165.144531 106.855469 "/>
<path style=" stroke:none;fill-rule:nonzero;fill:rgb(33.333333%,37.647059%,50.196078%);fill-opacity:1;" d="M 85.152344 96.839844 C 40.890625 96.839844 5.007812 84.128906 5.007812 68.457031 L 5.007812 110.195312 L 5.160156 110.195312 C 7.601562 125.09375 42.476562 136.910156 85.152344 136.910156 C 127.828125 136.910156 162.703125 125.09375 165.144531 110.195312 L 165.292969 110.195312 L 165.292969 68.457031 C 165.292969 84.128906 129.414062 96.839844 85.152344 96.839844 Z M 85.152344 96.839844 "/>
<path style=" stroke:none;fill-rule:nonzero;fill:rgb(33.333333%,37.647059%,50.196078%);fill-opacity:1;" d="M 5.007812 66.785156 L 5.007812 68.457031 C 5.007812 67.894531 5.070312 67.339844 5.160156 66.785156 Z M 5.007812 66.785156 "/>
<path style=" stroke:none;fill-rule:nonzero;fill:rgb(33.333333%,37.647059%,50.196078%);fill-opacity:1;" d="M 165.144531 66.785156 C 165.234375 67.339844 165.292969 67.894531 165.292969 68.457031 L 165.292969 66.785156 Z M 165.144531 66.785156 "/>
<path style=" stroke:none;fill-rule:nonzero;fill:rgb(56.862745%,72.941176%,88.235294%);fill-opacity:1;" d="M 165.292969 28.382812 C 165.292969 12.707031 129.414062 0 85.152344 0 C 40.890625 0 5.007812 12.707031 5.007812 28.382812 C 5.007812 44.058594 40.890625 56.769531 85.152344 56.769531 C 129.414062 56.769531 165.292969 44.058594 165.292969 28.382812 Z M 165.292969 28.382812 "/>
<path style=" stroke:none;fill-rule:nonzero;fill:rgb(52.54902%,59.215686%,79.607843%);fill-opacity:1;" d="M 85.152344 56.769531 C 40.890625 56.769531 5.007812 44.058594 5.007812 28.382812 L 5.007812 70.125 L 5.160156 70.125 C 7.601562 85.023438 42.476562 96.839844 85.152344 96.839844 C 127.828125 96.839844 162.703125 85.023438 165.144531 70.125 L 165.292969 70.125 L 165.292969 28.382812 C 165.292969 44.058594 129.414062 56.769531 85.152344 56.769531 Z M 85.152344 56.769531 "/>
<path style=" stroke:none;fill-rule:nonzero;fill:rgb(52.54902%,59.215686%,79.607843%);fill-opacity:1;" d="M 5.007812 26.714844 L 5.007812 28.382812 C 5.007812 27.824219 5.070312 27.269531 5.160156 26.714844 Z M 5.007812 26.714844 "/>
<path style=" stroke:none;fill-rule:nonzero;fill:rgb(52.54902%,59.215686%,79.607843%);fill-opacity:1;" d="M 165.144531 26.714844 C 165.234375 27.269531 165.292969 27.824219 165.292969 28.382812 L 165.292969 26.714844 Z M 165.144531 26.714844 "/>
<path style=" stroke:none;fill-rule:nonzero;fill:rgb(14.901961%,72.54902%,60%);fill-opacity:1;" d="M 181.992188 146.929688 C 181.992188 169.058594 164.050781 187 141.917969 187 C 119.789062 187 101.847656 169.058594 101.847656 146.929688 C 101.847656 124.796875 119.789062 106.855469 141.917969 106.855469 C 164.050781 106.855469 181.992188 124.796875 181.992188 146.929688 Z M 181.992188 146.929688 "/>
<path style=" stroke:none;fill-rule:nonzero;fill:rgb(100%,100%,100%);fill-opacity:1;" d="M 163.863281 127.492188 C 162.34375 126.433594 160.265625 126.808594 159.214844 128.324219 L 140.527344 155.171875 L 127.339844 144.347656 C 125.917969 143.175781 123.8125 143.386719 122.640625 144.8125 C 121.46875 146.238281 121.675781 148.339844 123.105469 149.511719 L 139.089844 162.628906 C 139.6875 163.121094 140.4375 163.386719 141.203125 163.386719 C 141.355469 163.386719 141.507812 163.378906 141.664062 163.359375 C 142.585938 163.226562 143.414062 162.722656 143.945312 161.957031 L 164.695312 132.140625 C 165.75 130.625 165.375 128.546875 163.863281 127.492188 Z M 163.863281 127.492188 "/>
</g>
</svg>
